<svg width="32" height="32" viewBox="0 0 32 32" fill="none" xmlns="http://www.w3.org/2000/svg">
<rect width="32" height="32" rx="16" fill="currentColor"/>
<g clip-path="url(#clip0_5022_2901)">
<path d="M21.25 19C22.9069 19 24.25 17.6569 24.25 16C24.25 14.3431 22.9069 13 21.25 13" stroke="white" stroke-width="1.5" stroke-linejoin="round"/>
<path d="M14.5 17.5C14.5 18.3284 15.3395 19 16.375 19C17.4105 19 18.25 18.3284 18.25 17.5" stroke="white" stroke-width="1.5" stroke-linejoin="round"/>
<path d="M11.5 13C9.84314 13 8.5 14.3431 8.5 16C8.5 17.6569 9.84314 19 11.5 19" stroke="white" stroke-width="1.5" stroke-linejoin="round"/>
<path d="M11.5 19V18.8125V17.875V16V13C11.5 10.5147 13.6826 8.5 16.375 8.5C19.0674 8.5 21.25 10.5147 21.25 13V19C21.25 21.4853 19.0674 23.5 16.375 23.5" stroke="white" stroke-width="1.5" stroke-linecap="round" stroke-linejoin="round"/>
</g>
<defs>
<clipPath id="clip0_5022_2901">
<rect width="18" height="18" fill="white" transform="translate(7 7)"/>
</clipPath>
</defs>
</svg>
